<svg width="338" height="232" viewBox="0 0 338 232" fill="none" xmlns="http://www.w3.org/2000/svg">
<g clip-path="url(#clip0_123_2)">
<path d="M174.018 23.964C148.644 23.964 128 44.608 128 69.982C128 95.356 148.644 116 174.018 116C199.392 116 220.036 95.358 220.036 69.982C220.036 44.606 199.392 23.964 174.018 23.964ZM193.496 90.666C192.918 91.534 191.966 92.002 190.996 92.002C190.424 92.002 189.846 91.84 189.334 91.498C184.388 88.2 176 86 169 86.002C161.572 86.006 156.004 87.83 155.948 87.848C154.38 88.38 152.678 87.524 152.154 85.952C151.63 84.38 152.48 82.68 154.052 82.158C154.316 82.07 160.61 80.008 169 80.004C176 80 185.736 81.888 192.664 86.506C194.044 87.426 194.416 89.288 193.496 90.666ZM199.48 78.386C198.83 79.43 197.708 80.004 196.562 80.004C195.942 80.004 195.314 79.838 194.75 79.484C185.782 73.896 176.566 72.714 168.626 72.784C159.662 72.864 152.494 74.574 152.372 74.61C150.558 75.126 148.65 74.066 148.132 72.244C147.614 70.418 148.676 68.52 150.5 68.004C151.054 67.846 158.208 66.086 168.002 66.004C176.932 65.93 188.06 67.224 198.384 73.656C199.99 74.656 200.484 76.776 199.48 78.386ZM205.45 64.026C204.704 65.294 203.368 66 201.996 66C201.308 66 200.612 65.822 199.974 65.45C189.522 59.314 176.814 58.012 167.994 58C167.952 58 167.91 58 167.868 58C157.202 58 148.988 59.876 148.906 59.896C146.75 60.39 144.604 59.058 144.104 56.906C143.604 54.756 144.938 52.608 147.088 52.106C147.458 52.02 156.234 50 167.868 50C167.914 50 167.96 50 168.006 50C177.816 50.014 192.028 51.506 204.026 58.55C205.93 59.67 206.568 62.122 205.45 64.026Z" fill="#0F0303"/>
<path d="M114 153.5H76C70.7623 153.5 66.5 157.762 66.5 163V201C66.5 206.238 70.7623 210.5 76 210.5H114C119.238 210.5 123.5 206.238 123.5 201V163C123.5 157.762 119.238 153.5 114 153.5ZM98.1825 201.883C97.6125 203.524 96.0482 204.167 95 204.167C93.9518 204.167 92.3875 203.524 91.8175 201.883C91.2475 200.243 90.25 194.565 90.25 190.759C90.25 186.953 93.6193 186.75 95 186.75C96.3807 186.75 99.75 186.956 99.75 190.759C99.75 194.565 98.7493 200.243 98.1825 201.883ZM91.0417 179.625C91.0417 177.44 92.815 175.667 95 175.667C97.185 175.667 98.9583 177.44 98.9583 179.625C98.9583 181.81 97.185 183.583 95 183.583C92.815 183.583 91.0417 181.81 91.0417 179.625ZM95 170.917C89.7623 170.917 85.5 175.179 85.5 180.417C85.5 182.963 86.5197 185.268 88.1568 186.975C87.5963 187.912 87.2638 189.024 87.1562 190.284C84.2397 187.96 82.3333 184.426 82.3333 180.417C82.3333 173.431 88.0143 167.75 95 167.75C101.986 167.75 107.667 173.431 107.667 180.417C107.667 184.426 105.76 187.96 102.847 190.284C102.739 189.027 102.404 187.912 101.846 186.975C103.48 185.268 104.5 182.963 104.5 180.417C104.5 175.179 100.238 170.917 95 170.917ZM102.388 197.922C102.553 196.668 102.692 195.376 102.784 194.119C107.565 191.389 110.833 186.304 110.833 180.417C110.833 171.686 103.731 164.583 95 164.583C86.2695 164.583 79.1667 171.686 79.1667 180.417C79.1667 186.304 82.4347 191.389 87.2163 194.119C87.3113 195.376 87.4475 196.668 87.6122 197.922C80.7943 195.034 76 188.276 76 180.417C76 169.938 84.5215 161.417 95 161.417C105.479 161.417 114 169.938 114 180.417C114 188.276 109.206 195.034 102.388 197.922Z" fill="#0F0303"/>
<path d="M256.96 164.3H238.04C233.765 164.3 230.3 167.765 230.3 172.04V190.96C230.3 195.235 233.765 198.7 238.04 198.7H256.96C261.235 198.7 264.7 195.235 264.7 190.96V172.04C264.7 167.765 261.235 164.3 256.96 164.3ZM258.843 178.278C259.402 178.039 260.064 178.006 260.623 178.174C260.856 178.247 261.062 178.343 261.26 178.463V179.52C260.641 179.095 259.927 178.975 259.376 179.272C258.792 179.593 258.448 180.265 258.465 180.97C258.456 181.748 258.714 182.468 259.256 182.805C259.738 183.133 260.494 183.133 261.26 183.013V183.894C260.959 183.991 260.641 184.047 260.314 184.078C259.772 184.119 259.17 184.038 258.637 183.75C258.095 183.469 257.699 182.981 257.476 182.492C257.261 181.987 257.183 181.474 257.175 180.985C257.149 179.944 257.708 178.775 258.843 178.278ZM255.24 175.489C255.715 175.489 256.1 175.874 256.1 176.349C256.1 176.823 255.715 177.209 255.24 177.209C254.765 177.209 254.38 176.823 254.38 176.349C254.38 175.874 254.765 175.489 255.24 175.489ZM255.885 178.069V184.089H254.595V178.069H255.885ZM249.22 182.511C249.77 182.735 250.441 182.968 250.966 183.018C251.49 183.076 252.066 183.009 252.402 182.826C252.565 182.726 252.6 182.587 252.6 182.432C252.6 182.277 252.569 182.19 252.494 182.074C252.357 181.862 251.98 181.702 251.387 181.56C251.095 181.477 250.776 181.393 250.424 181.202C250.071 181.044 249.355 180.47 249.494 179.49C249.569 178.966 250.112 178.454 250.871 178.215C251.756 177.935 252.72 178.074 253.52 178.457V179.522C252.806 179.156 251.955 178.971 251.232 179.212C251.017 179.278 250.733 179.427 250.733 179.697C250.733 180.342 251.482 180.465 251.765 180.557C252.058 180.648 252.376 180.731 252.72 180.906C253.064 181.073 253.754 181.489 253.754 182.439C253.754 183.349 253.305 183.684 252.935 183.833C252.17 184.166 251.49 184.108 250.828 184.016C250.269 183.917 249.727 183.75 249.22 183.434V182.511ZM243.415 178.07L244.705 178.069L244.707 180.15C244.719 180.829 244.718 181.57 244.71 182.199C244.68 182.535 245.056 182.928 245.549 182.988C245.812 183.017 246.009 182.996 246.311 182.867C246.49 182.797 246.672 182.737 246.855 182.674V178.069L248.145 178.07V183.933H246.855V183.73C246.82 183.749 246.786 183.77 246.752 183.788C246.424 183.984 245.898 184.12 245.45 184.083C244.983 184.053 244.514 183.889 244.131 183.579C243.751 183.273 243.464 182.792 243.427 182.264C243.404 181.507 243.41 180.858 243.417 180.151L243.415 178.07ZM233.955 178.069H235.245V178.66C235.563 178.545 235.879 178.425 236.199 178.315C236.659 178.152 237.236 178.185 237.689 178.437C237.876 178.537 238.041 178.679 238.185 178.84C238.668 178.661 239.151 178.481 239.638 178.315C240.098 178.151 240.675 178.184 241.128 178.436C241.586 178.682 241.942 179.132 242.068 179.655C242.102 179.786 242.116 179.919 242.124 180.052L242.127 180.324L242.133 180.862L242.127 181.937L242.125 184.087H240.835L240.83 179.921C240.794 179.556 240.383 179.236 239.953 179.353C239.515 179.469 239.073 179.572 238.631 179.679C238.661 179.802 238.676 179.925 238.684 180.051L238.687 180.324L238.693 180.861L238.687 181.936L238.685 184.086H237.395L237.39 179.92C237.354 179.554 236.943 179.235 236.513 179.352C236.093 179.464 235.668 179.562 235.245 179.665V184.085H233.955V178.069ZM259.34 189.182C257.436 190.532 255.309 191.422 253.075 192C250.843 192.57 248.52 192.786 246.207 192.627C243.896 192.472 241.638 191.908 239.51 191.084C237.39 190.232 235.385 189.138 233.613 187.703C233.521 187.628 233.507 187.493 233.582 187.401C233.648 187.319 233.761 187.298 233.851 187.346L233.863 187.353C235.797 188.4 237.864 189.201 239.94 189.838C242.033 190.433 244.162 190.859 246.304 190.945C248.442 191.02 250.602 190.853 252.711 190.415C254.811 189.981 256.929 189.352 258.877 188.455L258.91 188.439C259.126 188.34 259.381 188.434 259.48 188.65C259.57 188.842 259.506 189.065 259.34 189.182ZM260.298 191.727C260.059 191.908 259.82 191.848 259.94 191.547C260.298 190.583 261.075 188.536 260.716 188.054C260.298 187.512 258.147 187.813 257.192 187.934C256.894 187.934 256.894 187.693 257.133 187.512C257.969 186.91 259.104 186.67 260.06 186.67C261.016 186.67 261.852 186.85 262.031 187.151C262.329 187.511 261.911 190.342 260.298 191.727Z" fill="#0F0303"/>
<path d="M48.1802 18.6801C45.9154 18.6801 44.0802 16.8449 44.0802 14.5801V9.66006C44.0802 7.39522 45.9154 5.56006 48.1802 5.56006C50.445 5.56006 52.2802 7.39522 52.2802 9.66006V14.5801C52.2802 16.8449 50.445 18.6801 48.1802 18.6801ZM48.1802 76.0801C45.9154 76.0801 44.0802 74.2449 44.0802 71.9801V67.0601C44.0802 64.7952 45.9154 62.9601 48.1802 62.9601C50.445 62.9601 52.2802 64.7952 52.2802 67.0601V71.9801C52.2802 74.2449 50.445 76.0801 48.1802 76.0801ZM48.1802 58.0401C45.9154 58.0401 44.0802 56.2049 44.0802 53.9401V27.7001C44.0802 25.4352 45.9154 23.6001 48.1802 23.6001C50.445 23.6001 52.2802 25.4352 52.2802 27.7001V53.9401C52.2802 56.2049 50.445 58.0401 48.1802 58.0401ZM62.9402 18.6801C60.6754 18.6801 58.8402 20.5152 58.8402 22.7801V27.7001C58.8402 29.9649 60.6754 31.8001 62.9402 31.8001C65.205 31.8001 67.0402 29.9649 67.0402 27.7001V22.7801C67.0402 20.5152 65.205 18.6801 62.9402 18.6801ZM62.9402 36.7201C60.6754 36.7201 58.8402 38.5552 58.8402 40.8201V57.2201C58.8402 59.4849 60.6754 61.3201 62.9402 61.3201C65.205 61.3201 67.0402 59.4849 67.0402 57.2201V40.8201C67.0402 38.5552 65.205 36.7201 62.9402 36.7201ZM76.0602 33.4401C73.7954 33.4401 71.9602 35.2752 71.9602 37.5401V42.4601C71.9602 44.7249 73.7954 46.5601 76.0602 46.5601C78.325 46.5601 80.1602 44.7249 80.1602 42.4601V37.5401C80.1602 35.2752 78.325 33.4401 76.0602 33.4401ZM33.4202 61.3201C31.1554 61.3201 29.3202 59.4849 29.3202 57.2201V52.3001C29.3202 50.0352 31.1554 48.2001 33.4202 48.2001C35.685 48.2001 37.5202 50.0352 37.5202 52.3001V57.2201C37.5202 59.4849 35.685 61.3201 33.4202 61.3201ZM33.4202 43.2801C31.1554 43.2801 29.3202 41.4449 29.3202 39.1801V22.7801C29.3202 20.5152 31.1554 18.6801 33.4202 18.6801C35.685 18.6801 37.5202 20.5152 37.5202 22.7801V39.1801C37.5202 41.4449 35.685 43.2801 33.4202 43.2801ZM20.3002 33.4401C22.565 33.4401 24.4002 35.2752 24.4002 37.5401V42.4601C24.4002 44.7249 22.565 46.5601 20.3002 46.5601C18.0354 46.5601 16.2002 44.7249 16.2002 42.4601V37.5401C16.2002 35.2752 18.0354 33.4401 20.3002 33.4401Z" fill="#0F0303"/>
<path d="M313.832 37.3805C310.57 33.9632 306.172 32.08 301.45 32.08H280.8C280.149 32.08 279.62 32.6074 279.62 33.26V75.74C279.62 76.3925 280.149 76.92 280.8 76.92H290.24C292.192 76.92 293.78 75.3317 293.78 73.38V66.3H301.001C310.406 66.3 318.111 59.1468 318.541 50.0148C318.763 45.2842 317.091 40.7978 313.832 37.3805Z" fill="#0F0303"/>
</g>
<defs>
<clipPath id="clip0_123_2">
<rect width="338" height="232" fill="white"/>
</clipPath>
</defs>
</svg>
